#!OML:ASF F:\VICON\USERDATA\INSTALL\rory3\rory3.ASF
:FULLY-SPECIFIED
:DEGREES
1055
root 15.0153 17.893 -6.39435 538.222 -152.773 -174.752
lowerback 11.1332 3.02923 -1.42871
upperback 0.929824 3.81973 -0.249207
thorax -5.33861 1.90456 -0.0523529
lowerneck -18.1941 -4.08995 -11.2304
upperneck 37.8755 -4.07464 4.37976
head 17.3182 -2.76536 3.13644
rclavicle 2.41523e-014 1.11319e-014
rhumerus -31.2388 -2.56763 -83.5775
rradius 42.6265
rwrist -1.72443
rhand -18.6218 9.17266
rfingers 7.12502
rthumb 7.67021 -20.6682
lclavicle 2.41523e-014 1.11319e-014
lhumerus -36.3891 15.3922 72.8405
lradius 26.5886
lwrist -9.73021
lhand -18.4499 31.1651
lfingers 7.12502
lthumb 7.83616 60.9999
rfemur -15.537 -5.75799 12.3335
rtibia 61.345
rfoot -11.9635 -6.40049
rtoes 0.795006
lfemur -0.576589 -0.0162468 -30.1877
ltibia 15.5435
lfoot -10.5849 -0.847836
ltoes -7.0597
1056
root 14.9876 17.8884 -6.34343 538.158 -153.396 -174.591
lowerback 11.1853 2.99678 -1.75397
upperback 0.959818 3.73255 -0.293369
thorax -5.35284 1.8682 0.0950793
lowerneck -18.1146 -4.08527 -11.2433
upperneck 37.8425 -4.11274 4.49288
head 17.2873 -2.76478 3.1835
rclavicle 1.59028e-014 -7.95139e-016
rhumerus -31.0628 -2.45104 -83.8487
rradius 43.0567
rwrist -1.54721
rhand -17.9951 9.303
rfingers 7.12502
rthumb 8.27503 -20.5149
lclavicle 1.59028e-014 -7.95139e-016
lhumerus -36.0974 15.1899 73.017
lradius 26.1601
lwrist -9.76059
lhand -18.8973 30.6255
lfingers 7.12502
lthumb 7.40431 60.4759
rfemur -16.2079 -5.15238 12.4378
rtibia 61.5846
rfoot -11.9381 -7.3638
rtoes 3.43797
lfemur -0.268314 -0.221189 -30.3082
ltibia 15.4119
lfoot -10.6416 -1.34646
ltoes -6.34484
1057
root 14.9595 17.8955 -6.28659 538.144 -153.901 -174.508
lowerback 11.1152 2.99119 -1.97983
upperback 1.06096 3.69717 -0.330972
thorax -5.21871 1.85453 0.194875
lowerneck -18.0633 -4.09947 -11.2456
upperneck 37.6595 -4.1581 4.57112
head 17.1817 -2.76473 3.20638
rclavicle 3.10104e-014 1.51076e-014
rhumerus -30.7218 -2.44231 -84.0746
rradius 43.3301
rwrist -1.15924
rhand -17.4213 9.77905
rfingers 7.12502
rthumb 8.82882 -20.0163
lclavicle 3.10104e-014 1.51076e-014
lhumerus -35.8747 15.1422 73.1242
lradius 25.9162
lwrist -10.092
lhand -18.8199 30.3998
lfingers 7.12502
lthumb 7.479 60.2476
rfemur -16.8522 -4.46737 12.6225
rtibia 61.7343
rfoot -12.2059 -8.33683
rtoes 6.23998
lfemur -0.116107 -0.341073 -30.3782
ltibia 15.3033
lfoot -10.2414 -1.88894
ltoes -0.0805877
1058
root 14.9342 17.8968 -6.22658 538.164 -154.506 -174.494
lowerback 11.0655 2.91475 -2.11252
upperback 1.14433 3.58152 -0.327573
thorax -5.1093 1.79961 0.296163
lowerneck -18.1162 -4.12943 -11.3325
upperneck 37.5665 -4.20702 4.70091
head 17.1575 -2.7736 3.269
rclavicle 9.24349e-015 3.18055e-015
rhumerus -30.3487 -2.27559 -84.2876
rradius 43.5041
rwrist -0.722647
rhand -17.2455 10.0913
rfingers 7.12502
rthumb 8.99843 -19.6967
lclavicle 9.24349e-015 3.18055e-015
lhumerus -35.8334 15.1077 73.2453
lradius 25.847
lwrist -10.54
lhand -18.3219 30.5565
lfingers 7.12502
lthumb 7.95968 60.3867
rfemur -17.4741 -3.93628 12.8486
rtibia 61.8397
rfoot -12.6908 -9.07079
rtoes 7.49238
lfemur 0.026553 -0.365928 -30.4145
ltibia 15.2674
lfoot -10.3108 -2.28836
ltoes -0.771609
1059
root 14.9111 17.8808 -6.17445 538.243 -155.209 -174.541
lowerback 11.1193 2.80459 -2.19531
upperback 1.15386 3.42525 -0.301781
thorax -5.13185 1.72463 0.391377
lowerneck -18.2558 -4.15484 -11.4269
upperneck 37.6548 -4.2567 4.86585
head 17.2555 -2.78438 3.35435
rclavicle -7.95139e-015 -8.74653e-015
rhumerus -30.1701 -2.00594 -84.5224
rradius 43.7951
rwrist -0.383709
rhand -17.4761 10.1246
rfingers 7.12502
rthumb 8.77596 -19.6729
lclavicle -7.95139e-015 -8.74653e-015
lhumerus -35.7775 14.6227 73.5905
lradius 25.7598
lwrist -10.5426
lhand -18.0195 30.0952
lfingers 7.12502
lthumb 8.25152 59.9141
rfemur -18.2045 -3.54616 13.1514
rtibia 61.9421
rfoot -13.073 -9.8075
rtoes 8.51375
lfemur 0.272056 -0.341814 -30.3577
ltibia 15.2751
lfoot -11.0583 -2.64669
ltoes -7.32452
1060
root 14.8885 17.8666 -6.12126 538.315 -155.876 -174.572
lowerback 11.1591 2.70387 -2.26227
upperback 1.16764 3.28233 -0.303553
thorax -5.1394 1.65555 0.447993
lowerneck -18.3131 -4.16341 -11.3937
upperneck 37.6593 -4.28463 4.90251
head 17.2754 -2.78369 3.36022
rclavicle 2.98177e-015 1.59028e-015
rhumerus -30.1105 -1.70895 -84.8242
rradius 44.261
rwrist -0.127199
rhand -17.8379 9.82957
rfingers 7.12502
rthumb 8.42679 -19.9823
lclavicle 2.98177e-015 1.59028e-015
lhumerus -35.7326 13.77 74.0996
lradius 25.8318
lwrist -10.0464
lhand -17.6576 29.9289
lfingers 7.12502
lthumb 8.60077 59.7337
rfemur -18.9387 -3.21945 13.4117
rtibia 61.9787
rfoot -13.5414 -10.3468
rtoes 10.3919
lfemur 0.54038 -0.461561 -30.3209
ltibia 15.2495
lfoot -11.5913 -2.84253
ltoes -10.6367
1061
root 14.8656 17.8576 -6.06052 538.316 -156.45 -174.516
lowerback 11.1988 2.62221 -2.37542
upperback 1.18033 3.15703 -0.339294
thorax -5.14871 1.59577 0.492365
lowerneck -18.3162 -4.15484 -11.2617
upperneck 37.625 -4.27122 4.79473
head 17.2471 -2.77148 3.28912
rclavicle 5.36719e-015 -1.51076e-014
rhumerus -30.0232 -1.4077 -85.1235
rradius 44.6372
rwrist 0.0740443
rhand -17.9016 9.52373
rfingers 7.12502
rthumb 8.36532 -20.2906
lclavicle 5.36719e-015 -1.51076e-014
lhumerus -35.7688 13.0021 74.547
lradius 26.0032
lwrist -9.61863
lhand -17.2411 29.9178
lfingers 7.12502
lthumb 9.0027 59.7057
rfemur -19.6006 -2.84457 13.5353
rtibia 61.9339
rfoot -13.9158 -10.5771
rtoes 11.1941
lfemur 0.82588 -0.661545 -30.4008
ltibia 15.1645
lfoot -11.6465 -3.18765
ltoes -10.8316
1062
root 14.8428 17.846 -5.99785 538.313 -156.93 -174.484
lowerback 11.2538 2.5682 -2.45721
upperback 1.15869 3.07201 -0.364944
thorax -5.20247 1.55582 0.521747
lowerneck -18.2099 -4.13725 -11.2561
upperneck 37.6042 -4.2667 4.82037
head 17.2085 -2.76473 3.30116
rclavicle -5.76476e-014 -3.18055e-015
rhumerus -29.9375 -1.18614 -85.3657
rradius 44.8395
rwrist 0.326842
rhand -17.736 9.48051
rfingers 7.12502
rthumb 8.52508 -20.3274
lclavicle -5.76476e-014 -3.18055e-015
lhumerus -35.8735 12.5351 74.8437
lradius 26.0914
lwrist -9.59344
lhand -16.8906 29.3344
lfingers 7.12502
lthumb 9.34088 59.1074
rfemur -20.2399 -2.33576 13.6826
rtibia 61.7707
rfoot -14.3294 -10.6857
rtoes 10.5226
lfemur 1.20354 -0.890715 -30.4677
ltibia 15.0833
lfoot -11.7032 -3.77861
ltoes -9.52832
1063
root 14.8206 17.8357 -5.93844 538.343 -157.416 -174.453
lowerback 11.3405 2.50628 -2.54872
upperback 1.11431 2.97455 -0.377768
thorax -5.29847 1.51059 0.570099
lowerneck -18.1412 -4.15873 -11.3295
upperneck 37.6295 -4.3229 4.92621
head 17.2178 -2.78431 3.35312
rclavicle 4.01545e-014 -1.11319e-014
rhumerus -29.8711 -1.06543 -85.5235
rradius 44.9358
rwrist 0.757463
rhand -17.6199 9.73412
rfingers 7.12502
rthumb 8.63718 -20.0692
lclavicle 4.01545e-014 -1.11319e-014
lhumerus -36.0245 12.4124 75.0409
lradius 26.1989
lwrist -9.87174
lhand -16.2164 29.2739
lfingers 7.12502
lthumb 9.99137 59.0168
rfemur -20.971 -1.9341 13.863
rtibia 61.4945
rfoot -14.802 -10.7835
rtoes 7.87374
lfemur 1.52385 -0.92721 -30.5258
ltibia 15.0267
lfoot -12.0977 -4.18246
ltoes -9.04885
1064
root 14.7991 17.8358 -5.88054 538.388 -157.95 -174.458
lowerback 11.4766 2.40204 -2.6095
upperback 1.09628 2.8233 -0.386135
thorax -5.39094 1.43804 0.613687
lowerneck -18.1319 -4.1811 -11.3753
upperneck 37.5945 -4.36975 5.00645
head 17.2064 -2.79701 3.38793
rclavicle -2.3556e-014 -7.95139e-016
rhumerus -29.7656 -0.868569 -85.7264
rradius 45.0685
rwrist 1.14612
rhand -17.708 10.011
rfingers 7.12502
rthumb 8.55214 -19.7958
lclavicle -2.3556e-014 -7.95139e-016
lhumerus -36.0736 11.9745 75.4121
lradius 26.3207
lwrist -9.84083
lhand -15.9358 29.2345
lfingers 7.12502
lthumb 10.2621 58.9642
rfemur -21.6807 -1.69121 14.0596
rtibia 61.0777
rfoot -15.2603 -10.5996
rtoes 6.96635
lfemur 1.74383 -0.943888 -30.5442
ltibia 14.9909
lfoot -12.6348 -4.0596
ltoes -12.0413
1065
root 14.7755 17.8391 -5.81618 538.365 -158.39 -174.437
lowerback 11.5492 2.32435 -2.69355
upperback 1.14522 2.7056 -0.418329
thorax -5.37832 1.38098 0.644777
lowerneck -18.1192 -4.15905 -11.3305
upperneck 37.5221 -4.36018 5.03656
head 17.1611 -2.77927 3.39386
rclavicle -2.23633e-014 -1.11319e-014
rhumerus -29.6558 -0.635939 -85.9879
rradius 45.2982
rwrist 1.35898
rhand -17.7056 10.0893
rfingers 7.12502
rthumb 8.55449 -19.7174
lclavicle -2.23633e-014 -1.11319e-014
lhumerus -35.9638 11.3472 75.8458
lradius 26.3484
lwrist -9.71853
lhand -16.0341 29.1643
lfingers 7.12502
lthumb 10.1672 58.8986
rfemur -22.2204 -1.25288 14.1413
rtibia 60.5722
rfoot -15.2044 -9.83012
rtoes 6.30123
lfemur 2.10293 -1.08275 -30.5829
ltibia 14.8725
lfoot -12.8938 -3.80497
ltoes -16.3997
1066
root 14.7519 17.831 -5.74821 538.403 -158.768 -174.428
lowerback 11.4401 2.27029 -2.7122
upperback 1.22987 2.63353 -0.471011
thorax -5.22429 1.34363 0.618369
lowerneck -18.1106 -4.17568 -11.279
upperneck 37.4118 -4.38993 5.01784
head 17.1001 -2.78191 3.36683
rclavicle 1.04362e-014 8.74653e-015
rhumerus -29.519 -0.451568 -86.2686
rradius 45.4829
rwrist 1.50045
rhand -17.4966 10.38
rfingers 7.12502
rthumb 8.7561 -19.4184
lclavicle 1.04362e-014 8.74653e-015
lhumerus -35.8444 10.8305 76.2287
lradius 26.5055
lwrist -9.61264
lhand -15.7999 29.1276
lfingers 7.12502
lthumb 10.3932 58.8507
rfemur -22.8058 -0.793577 14.2077
rtibia 60.008
rfoot -15.4408 -8.94874
rtoes 4.16378
lfemur 2.4328 -1.33887 -30.6086
ltibia 14.7329
lfoot -12.4256 -4.12769
ltoes -10.1439
1067
root 14.7268 17.8154 -5.69001 538.393 -159.228 -174.317
lowerback 11.5084 2.22013 -2.88366
upperback 1.25867 2.53982 -0.52973
thorax -5.2337 1.30018 0.666421
lowerneck -18.1027 -4.24822 -11.3519
upperneck 37.3742 -4.51227 5.12122
head 17.0994 -2.82591 3.40167
rclavicle -2.96189e-014 3.97569e-016
rhumerus -29.4579 -0.376954 -86.473
rradius 45.6043
rwrist 1.64965
rhand -17.2231 10.6661
rfingers 7.12502
rthumb 9.02003 -19.1211
lclavicle -2.96189e-014 3.97569e-016
lhumerus -35.7457 10.3872 76.5831
lradius 26.5773
lwrist -9.60455
lhand -16.2585 28.255
lfingers 7.12502
lthumb 9.95077 57.9998
rfemur -23.4169 -0.527151 14.2089
rtibia 59.3919
rfoot -15.5218 -8.11546
rtoes 0.247479
lfemur 2.67459 -1.40975 -30.6914
ltibia 14.6213
lfoot -11.6141 -4.8433
ltoes -2.76521
1068
root 14.7025 17.8077 -5.63501 538.428 -159.751 -174.237
lowerback 11.6797 2.17401 -3.04635
upperback 1.23298 2.44799 -0.577681
thorax -5.35755 1.25906 0.715586
lowerneck -18.1752 -4.33963 -11.3555
upperneck 37.4223 -4.67376 5.20201
head 17.1669 -2.88049 3.40847
rclavicle 6.31141e-015 1.59028e-015
rhumerus -29.4348 -0.366674 -86.627
rradius 45.7253
rwrist 1.69729
rhand -17.0216 10.7267
rfingers 7.12502
rthumb 9.21454 -19.052
lclavicle 6.31141e-015 1.59028e-015
lhumerus -35.6536 10.0274 76.8852
lradius 26.5464
lwrist -9.87761
lhand -16.4768 27.4485
lfingers 7.12502
lthumb 9.74013 57.2032
rfemur -24.0106 -0.372281 14.2513
rtibia 58.6815
rfoot -15.6946 -7.12303
rtoes -2.18291
lfemur 2.91252 -1.45554 -30.7476
ltibia 14.4402
lfoot -11.3094 -5.31254
ltoes -2.61331
